#N canvas 52 24 1205 717 10;
#X obj 355 363 v div;
#X floatatom 355 273 5 0 0 0 - - -;
#X floatatom 183 419 5 0 0 0 - - -;
#X floatatom 184 476 5 0 0 0 - - -;
#X obj 355 340 expr 1 / $f1;
#X obj 212 342 until;
#X obj 155 378 f;
#X obj 212 296 t b b;
#X obj 212 275 bng 15 250 50 0 empty empty empty 17 7 0 10 -262144
-1 -1;
#X obj 48 -282 r fromGUI;
#X obj 1013 -232 send toGUI;
#X obj 1013 -255 list prepend /disp;
#X obj 185 436 expr $f1 * div \; $f1 * div + div;
#X floatatom 238 474 5 0 0 0 - - -;
#X obj 205 500 pack;
#X obj 200 674 s toDisplay;
#X obj 1013 -279 r toDisplay;
#X floatatom 211 231 5 0 0 0 - - -;
#X obj 49 -235 route /disp;
#X obj 44 -184 unpack f f f;
#X floatatom 46 -140 5 0 0 0 - - -;
#X obj 50 -259 route list;
#X obj 212 322 i;
#X obj 46 -117 i;
#X obj 399 -42 text define rgbVals;
#X obj 444 5 text insert rgbVals;
#X obj 288 508 text get rgbVals;
#X obj 183 398 t f f;
#X obj 201 529 list append, f 15;
#X msg 445 -19 0.5 0 1 \, 0 0.5 1 \, 0 1 1 \, 0.5 1 0 \, 1 1 0 \, 1
0.5 0 \, 1 0 0;
#X msg 398 -66 clear;
#X obj 328 -113 loadbang;
#X obj 386 -114 bng 15 250 50 0 empty empty empty 17 7 0 10 -262144
-1 -1;
#X obj 211 250 t b f f, f 16;
#X obj 184 377 - 1;
#X obj 306 362 v size;
#X obj 289 464 t f f, f 21;
#X obj 405 553 + 0.5, f 8;
#X obj 406 532 * 0.5;
#X obj 378 211 t b f b;
#X obj 199 597 list append, f 35;
#X msg 199 622 paintrect \$1 0 \$2 1 \$3 \$4 \$5 \$6 \, framerect \$1
0 \$2 1 0 0 0 1;
#X obj 288 486 % 7, f 10;
#X obj 346 418 - 1;
#X text 100 -143 can use drag for portamento;
#X obj 728 -345 r fromGUI;
#X obj 728 -320 route list;
#X obj 728 -290 route /disp;
#X obj 761 -219 sig~;
#X obj 728 -246 unpack f f f;
#X obj 544 96 im.scale C major 5;
#X obj 544 118 im.fizzy;
#X obj 683 254 im.output;
#X obj 729 -218 >= 1;
#X obj 763 -68 sig~;
#X obj 728 -168 sel 1;
#X obj 763 -135 tgl 15 0 empty empty empty 17 7 0 10 -262144 -1 -1
0 1;
#X obj 765 -107 expr if($f1 ==1 \, 1 \, -1);
#X floatatom 763 -91 5 0 0 0 - - -;
#X obj 750 -45 *~;
#X obj 729 -196 change;
#X obj 544 72 *~ 8;
#X obj 347 443 clip 0 7;
#X obj 270 -205 >= 1;
#X obj 271 -180 change;
#X msg 43 -202 \$2 \$3 \$1;
#X obj 46 -158 expr if ($f2 == 1 \, ($f1 * size) \, -100);
#X msg 216 649 paintrect 0 0 1 1 0 0 0 1;
#X obj 344 56 array define test;
#X obj 344 36 array size test;
#X obj 165 -98 tabwrite test, f 18;
#X floatatom 204 -187 5 0 0 0 - - -;
#X obj 137 -270 unpack f f;
#X obj 204 -250 expr $f1 * size;
#X obj 204 -217 i;
#X obj 204 -125 moses 0 127;
#X obj 116 -297 t a a;
#X obj 407 506 tabread test;
#X obj 450 354 tabread test;
#X obj 451 398 clip 0 1;
#X obj 450 324 t f f, f 15;
#X obj 452 428 tabwrite test;
#X obj 435 212 f;
#X obj 435 254 until;
#X obj 329 -90 t b b b b, f 12;
#X obj 409 141 tgl 15 0 empty empty empty 17 7 0 10 -262144 -1 -1 1
1;
#X obj 450 280 f;
#X obj 479 280 - 1;
#X obj 436 232 t f f;
#X obj 409 182 t b b;
#X obj 1043 76 im.tunedperc;
#X msg 341 -37 15;
#X obj 861 -231 print;
#X obj 499 255 - 1;
#X obj 164 -225 > 0;
#X obj 137 -248 sel 0;
#X obj 435 301 sel;
#X obj 451 378 - 0.1;
#X obj 602 145 sig~;
#X obj 559 171 im.volume;
#X obj 602 121 1 - $f1;
#X obj 451 530 expr ($f1 / 2) + 0.1;
#X obj 404 574 clip 0 1;
#X obj 936 -277 im.mobile;
#X obj 861 -255 route /myToggle;
#X obj 717 168 im.input /myToggle;
#X obj 667 186 im.volume;
#X obj 668 211 im.echo 500 50%;
#X obj 920 -171 r fromSystem;
#X obj 920 -100 unpack f f, f 11;
#X floatatom 920 -76 5 0 0 0 - - -;
#X floatatom 982 -72 5 0 0 0 - - -;
#X obj 920 -123 route /tilts;
#X obj 920 -147 route list;
#X floatatom 921 -14 5 0 0 0 - - -;
#X obj 920 -56 + 2;
#X obj 920 -35 * 200;
#X obj 983 -50 + 1;
#X floatatom 982 -2 5 0 0 0 - - -;
#X obj 982 -26 / 2.5;
#X obj 921 63 line~;
#X msg 920 40 \$1 100;
#X obj 671 150 im.chorus;
#X obj 668 91 im.volume;
#X obj 717 65 im.input /myToggle2;
#X obj 670 118 im.distort;
#X text 30 -453 prototyping code which does not represent the instrument
maker framework/library;
#X text 29 -420 charles matthews 2019;
#X obj 442 36 s arraySize;
#X obj 565 50 r arraySize;
#X text 813 -402 how to deal with polyphony effectively?;
#X obj 408 160 metro 60;
#X text 443 143 change back to 30;
#X text 816 -381 how many voices should we allow?;
#X obj 588 -271 poly 10;
#X obj 588 -307 route /multitouch;
#X text 480 -245 (do we actually need poly here?);
#X obj 638 -272 clone;
#X msg 928 167 list /myMenu C D E F G;
#X obj 927 196 s toGUI;
#X connect 1 0 4 0;
#X connect 1 0 22 1;
#X connect 1 0 35 0;
#X connect 2 0 12 0;
#X connect 3 0 14 0;
#X connect 4 0 0 0;
#X connect 5 0 6 0;
#X connect 6 0 34 0;
#X connect 7 0 22 0;
#X connect 8 0 7 0;
#X connect 9 0 21 0;
#X connect 11 0 10 0;
#X connect 12 0 3 0;
#X connect 12 1 13 0;
#X connect 13 0 14 1;
#X connect 14 0 28 0;
#X connect 16 0 11 0;
#X connect 17 0 33 0;
#X connect 18 0 76 0;
#X connect 19 0 66 0;
#X connect 19 1 101 0;
#X connect 19 2 63 0;
#X connect 20 0 23 0;
#X connect 21 0 18 0;
#X connect 22 0 5 0;
#X connect 23 0 96 1;
#X connect 26 0 28 1;
#X connect 27 0 2 0;
#X connect 27 1 36 0;
#X connect 28 0 40 0;
#X connect 29 0 25 0;
#X connect 30 0 24 0;
#X connect 31 0 84 0;
#X connect 32 0 84 0;
#X connect 33 0 8 0;
#X connect 33 1 1 0;
#X connect 33 2 6 1;
#X connect 34 0 6 1;
#X connect 34 0 27 0;
#X connect 36 0 42 0;
#X connect 36 1 77 0;
#X connect 37 0 102 0;
#X connect 38 0 37 0;
#X connect 39 0 17 0;
#X connect 39 2 67 0;
#X connect 40 0 41 0;
#X connect 41 0 15 0;
#X connect 42 0 26 0;
#X connect 43 0 62 0;
#X connect 45 0 46 0;
#X connect 46 0 47 0;
#X connect 46 0 104 0;
#X connect 47 0 49 0;
#X connect 48 0 59 0;
#X connect 49 0 53 0;
#X connect 49 1 48 0;
#X connect 49 2 98 0;
#X connect 50 0 51 0;
#X connect 51 0 99 0;
#X connect 51 0 123 0;
#X connect 53 0 60 0;
#X connect 54 0 59 1;
#X connect 55 0 56 0;
#X connect 56 0 57 0;
#X connect 57 0 58 0;
#X connect 58 0 54 0;
#X connect 59 0 61 0;
#X connect 60 0 55 0;
#X connect 61 0 50 0;
#X connect 62 0 42 1;
#X connect 63 0 64 0;
#X connect 64 0 66 1;
#X connect 65 0 19 0;
#X connect 66 0 20 0;
#X connect 67 0 15 0;
#X connect 71 0 75 0;
#X connect 72 0 95 0;
#X connect 72 1 73 0;
#X connect 73 0 74 0;
#X connect 74 0 71 0;
#X connect 75 1 70 1;
#X connect 76 0 65 0;
#X connect 76 1 72 0;
#X connect 77 0 38 0;
#X connect 78 0 97 0;
#X connect 79 0 81 0;
#X connect 80 0 78 0;
#X connect 80 1 81 1;
#X connect 82 0 88 0;
#X connect 83 0 86 0;
#X connect 84 0 85 0;
#X connect 84 1 91 0;
#X connect 84 2 29 0;
#X connect 84 3 30 0;
#X connect 85 0 131 0;
#X connect 86 0 87 0;
#X connect 86 0 96 0;
#X connect 87 0 86 1;
#X connect 88 0 83 0;
#X connect 88 1 93 0;
#X connect 89 0 39 0;
#X connect 89 1 82 0;
#X connect 91 0 17 0;
#X connect 91 0 43 0;
#X connect 91 0 69 0;
#X connect 91 0 82 1;
#X connect 91 0 128 0;
#X connect 93 0 86 1;
#X connect 94 0 70 0;
#X connect 95 1 94 0;
#X connect 96 1 80 0;
#X connect 97 0 79 0;
#X connect 98 0 99 1;
#X connect 99 0 52 0;
#X connect 99 0 106 0;
#X connect 100 0 98 0;
#X connect 101 0 37 1;
#X connect 102 0 40 1;
#X connect 104 0 92 0;
#X connect 105 0 106 1;
#X connect 106 0 107 0;
#X connect 107 0 52 0;
#X connect 108 0 113 0;
#X connect 109 0 110 0;
#X connect 109 1 111 0;
#X connect 110 0 115 0;
#X connect 111 0 117 0;
#X connect 112 0 109 0;
#X connect 113 0 112 0;
#X connect 114 0 121 0;
#X connect 115 0 116 0;
#X connect 116 0 114 0;
#X connect 117 0 119 0;
#X connect 118 0 107 2;
#X connect 119 0 118 0;
#X connect 120 0 107 3;
#X connect 121 0 120 0;
#X connect 122 0 52 0;
#X connect 122 0 106 0;
#X connect 123 0 125 0;
#X connect 124 0 123 1;
#X connect 125 0 122 0;
#X connect 129 0 61 1;
#X connect 131 0 89 0;
#X connect 138 0 139 0;
